<?xml version="1.0" encoding="UTF-8"?>
<svg id="Layer_1" data-name="Layer 1" xmlns="http://www.w3.org/2000/svg" viewBox="0 0 401.96 988.95">
  <defs>
    <style>
      .cls-1 {
        fill: #231f20;
        stroke-width: 0px;
      }
    </style>
  </defs>
  <path class="cls-1" d="m150.43,433.66c.69-21.31-.61-15.38,1.22-48.55,1.73-31.51,2.82-82.08,3.62-113.69.53-20.8,2.22-24.42.94-45.25-.84-13.65-5.6-19.6-13.65-24.1-13.04-7.28-16.98.8-15.44,20.86,1.23,15.99,1.51,30.14,1.07,46.33-1.01,37.39-1.93,74.77-3.47,112.12-.81,19.54-1.71,39.07-2.6,58.6v.11c-.31,6.88,3.23,12.71,7.7,12.71h10.61c4.74,0,8.76-5.38,9.42-12.61.32-3.52.59-6.43.59-6.54Z"/>
  <g>
    <path class="cls-1" d="m320.66,984.22c-.53,5.42-7.95,6.53-9.97,1.47-4.7-11.72-8.2-24.38-12.1-35.89-5.89-17.38-11.39-34.91-16.77-52.47-11.37-37.08-22.46-74.26-32.84-111.61-2.59-9.27-4.51-18.61-6.36-28.03-1.18-5.89-1.33-19.5-5.99-23.45-10.11-8.58-19.55,33.93-21.52,39.99-5.92,18.24-11.96,36.42-19.01,54.27-5.54,14.02-10.68,29.46-18,42.88-1.22,2.23-4.4,2.25-5.67.05-10.52-18.23-17.55-39.46-24.71-59.01-8.73-23.82-16.05-48.15-24.85-71.92-4.68-12.67-10.68-11.83-16.44-.54-5.47,10.7-10.36,21.7-15.98,32.32-5.6,10.63-11.59,21.06-18.17,31.11-3.57,5.5-7.25,10.92-10.82,16.42-.95,1.47-1.88,3.27-2.9,5.05-1.88,3.29-6.9,2.25-7.26-1.52-2.14-22.13-1.02-45.28-1.47-67.31-.25-12.43-.47-24.85-.69-37.25-.12-5.89-.22-11.76-.32-17.65-.1-5.87-1.8-14.32-.22-20.12,1.97-7.27,11.27-6.14,18.02-7.3,14.03-2.44,28.03-4.81,42.06-7.22,25.2-4.39,50.35-8.85,75.74-12.2,26.18-3.48,52.39-6.24,78.75-8.38,6.58-.54,13.19-1.06,19.77-1.48,3.87-.25,9.34-1.68,12.92.2,7.3,3.8,6.19,22.31,7.2,29.54,7.25,50.74,12.7,101.75,15.83,152.93,1.73,28.16,1.78,56.44,2.19,84.64.34,23.74,1.91,48.56-.42,72.49Z"/>
    <path class="cls-1" d="m99.55,113.34c-2.89,2.65-2.72,7.28.39,9.67,1.59,1.23,3.21,2.39,4.36,3.57,3.06,3.12,5.64,6.7,8.34,10.14,5.36,6.83,10.17,14.26,15.72,20.91,4.71,5.65,9.46,7.71,16.78,6.29,3.67-.71,18.9-3.11,16.64-8.64-.69-1.68-7.09-3.45-8.8-4.76-3.05-2.35-5.59-5.63-8.08-8.52-4.66-5.43-13.02-15.73-15.5-18.8-.48-.59-.85-1.24-1.13-1.94l-.04-.09c-1.12-2.85-.39-6.09,1.86-8.18l5.75-5.35s11.1-9.85,15.85-15.54c9.71-11.64,20.74-27.32,20.74-43.12-.64-14.68-7.25-28.01-15.39-40.14-4.94-7.37-9.76-10.64-18.93-7.83-11.73,3.6-3.45,7.58,1.43,13.07,17.57,19.73,10.17,51.5-12.25,73.87l-27.71,25.4Z"/>
  </g>
  <path class="cls-1" d="m102.76,445.8c-.1,2.24.14,5.61.68,9.21,1.46,9.83,9.91,17.1,19.84,17.1h26.06c7.8,0,14.65-5.11,16.95-12.57,1.53-4.95,2.5-15.88,2.82-19.34.32-3.52.59-6.43.59-6.54.61-18.57-.3-16.47.66-37.55.15-3.18,2.69-5.75,5.87-5.9l7.95-.56c20.71-1.08,41.42-2.32,62.13-3.16,5.65-.25,14.67-2.64,18.24,2.61,4.02,5.94,2.1,20.88,2.47,27.84,2.24,41.05,6.78,82.15,13.04,122.78,1.9,12.36,4.79,28.53,6.53,38.12.96,5.27,3.74,10.03,7.86,13.45h0c4.38,3.64,9.94,5.52,15.63,5.26,11.83-.53,32.02-1.46,38-1.82,8.43-.52,16.86-1.04,25.27-1.68,7.82-.59,16.25-2.76,24.04-2.44,6.56.27,4.81,16.75,2.42,21.61-3.55,7.17-11.61,6.19-18.49,6.73-33.7,2.61-70.02,1.63-104.24,4.86-.42.05-.81.07-1.21.07,1.08-.09.62-.05-.82.05.06,0,.11,0,.18,0-.8.06-1.58.11-2.32.15-4.63.32-12.91.86-19.79,1.11-39.35,2.74-78.44,7.09-117.58,12.07-41.07,5.19-81.69,14.14-122.65,19.83-7.34,1.02-13.71-5.19-12.79-12.54.42-3.38.94-6.73,1.22-9.9.89-10.48,1.83-20.96,2.79-31.43,1.85-19.87,4.17-39.62,6.9-59.37,5.52-39.84,10.65-79.68,14.5-119.72.67-7.17-.64-20.88,3.23-27.1,4.07-6.51,14.05-4.31,20.64-4.31,20.96-.05,22.79-1.54,43.75-.61l5.19-.22c3.56-.15,6.49,2.78,6.33,6.34l-1.87,47.55Z"/>
</svg>